<svg width="42" height="10" viewBox="0 0 42 10" fill="none" xmlns="http://www.w3.org/2000/svg">
<path d="M0.104 9V0.24H2.372C2.94 0.24 3.428 0.348 3.836 0.564C4.252 0.779999 4.572 1.084 4.796 1.476C5.028 1.868 5.144 2.332 5.144 2.868V6.36C5.144 6.896 5.028 7.364 4.796 7.764C4.572 8.156 4.252 8.46 3.836 8.676C3.428 8.892 2.94 9 2.372 9H0.104ZM1.184 8.04H2.372C2.9 8.04 3.312 7.892 3.608 7.596C3.912 7.3 4.064 6.888 4.064 6.36V2.868C4.064 2.348 3.912 1.94 3.608 1.644C3.312 1.348 2.9 1.2 2.372 1.2H1.184V8.04ZM7.45531 9V8.016H9.24331V1.224H7.45531V0.24H12.1353V1.224H10.3473V8.016H12.1353V9H7.45531ZM17.0386 9.12C16.5106 9.12 16.0506 9.02 15.6586 8.82C15.2746 8.62 14.9746 8.332 14.7586 7.956C14.5506 7.572 14.4466 7.12 14.4466 6.6V2.64C14.4466 2.112 14.5506 1.66 14.7586 1.284C14.9746 0.908 15.2746 0.619999 15.6586 0.42C16.0506 0.22 16.5106 0.12 17.0386 0.12C17.5666 0.12 18.0226 0.224 18.4066 0.431999C18.7906 0.632 19.0866 0.92 19.2946 1.296C19.5026 1.672 19.6066 2.12 19.6066 2.64H18.5266C18.5266 2.144 18.3946 1.764 18.1306 1.5C17.8746 1.228 17.5106 1.092 17.0386 1.092C16.5666 1.092 16.1946 1.224 15.9226 1.488C15.6586 1.752 15.5266 2.132 15.5266 2.628V6.6C15.5266 7.096 15.6586 7.48 15.9226 7.752C16.1946 8.024 16.5666 8.16 17.0386 8.16C17.5106 8.16 17.8746 8.024 18.1306 7.752C18.3946 7.48 18.5266 7.096 18.5266 6.6V5.52H16.7506V4.536H19.6066V6.6C19.6066 7.112 19.5026 7.56 19.2946 7.944C19.0866 8.32 18.7906 8.612 18.4066 8.82C18.0226 9.02 17.5666 9.12 17.0386 9.12ZM21.7859 9V0.24H26.8259V1.224H22.8539V3.936H26.4059V4.908H22.8539V8.016H26.8259V9H21.7859ZM31.4293 9.12C30.8533 9.12 30.3573 9.024 29.9413 8.832C29.5333 8.64 29.2173 8.364 28.9933 8.004C28.7693 7.644 28.6533 7.216 28.6453 6.72H29.7253C29.7253 7.16 29.8733 7.508 30.1693 7.764C30.4733 8.02 30.8933 8.148 31.4293 8.148C31.9333 8.148 32.3253 8.024 32.6053 7.776C32.8933 7.528 33.0373 7.184 33.0373 6.744C33.0373 6.392 32.9413 6.084 32.7493 5.82C32.5653 5.556 32.2973 5.372 31.9453 5.268L30.7573 4.896C30.1573 4.712 29.6933 4.404 29.3652 3.972C29.0453 3.54 28.8853 3.032 28.8853 2.448C28.8853 1.976 28.9893 1.568 29.1973 1.224C29.4133 0.872 29.7133 0.6 30.0973 0.408C30.4813 0.207999 30.9333 0.107999 31.4533 0.107999C32.2213 0.107999 32.8373 0.323999 33.3013 0.756C33.7653 1.18 34.0013 1.748 34.0093 2.46H32.9293C32.9293 2.028 32.7973 1.692 32.5333 1.452C32.2773 1.204 31.9133 1.08 31.4413 1.08C30.9773 1.08 30.6133 1.192 30.3493 1.416C30.0933 1.64 29.9653 1.952 29.9653 2.352C29.9653 2.712 30.0613 3.024 30.2533 3.288C30.4453 3.552 30.7213 3.74 31.0813 3.852L32.2813 4.236C32.8653 4.42 33.3173 4.732 33.6373 5.172C33.9573 5.612 34.1172 6.128 34.1172 6.72C34.1172 7.2 34.0052 7.62 33.7812 7.98C33.5573 8.34 33.2413 8.62 32.8333 8.82C32.4333 9.02 31.9653 9.12 31.4293 9.12ZM38.0366 9V1.212H35.6366V0.228H41.5166V1.212H39.1166V9H38.0366Z" fill="white"/>
</svg>
